<svg width="18" height="18" viewBox="0 0 18 18" fill="none" xmlns="http://www.w3.org/2000/svg">
<path d="M10.6667 9L7.33341 5.66667V8.16667H0.666748V9.83334H7.33341V12.3333L10.6667 9ZM17.3334 9C17.3338 10.9913 16.6211 12.9168 15.3245 14.4281C14.0278 15.9393 12.2329 16.9363 10.2647 17.2384C8.29649 17.5406 6.28515 17.128 4.59486 16.0754C2.90457 15.0228 1.64707 13.3997 1.05008 11.5H2.82508C3.40525 12.9342 4.46618 14.122 5.82605 14.8598C7.18592 15.5976 8.76006 15.8394 10.2787 15.5439C11.7973 15.2484 13.1659 14.4339 14.1499 13.24C15.1338 12.0461 15.6719 10.5471 15.6719 9C15.6719 7.45288 15.1338 5.95393 14.1499 4.76003C13.1659 3.56613 11.7973 2.75162 10.2787 2.45609C8.76006 2.16057 7.18592 2.40242 5.82605 3.14021C4.46618 3.878 3.40525 5.06578 2.82508 6.5H1.05008C1.64707 4.60034 2.90457 2.97724 4.59486 1.92461C6.28515 0.871972 8.29649 0.459391 10.2647 0.761571C12.2329 1.06375 14.0278 2.06072 15.3245 3.57194C16.6211 5.08316 17.3338 7.00874 17.3334 9V9Z" fill="#CCCED0"/>
</svg>
