<svg width="369" height="314" viewBox="0 0 369 314" fill="none" xmlns="http://www.w3.org/2000/svg">
<g clip-path="url(#clip0_6294_70287)">
<path opacity="0.9" d="M175.763 279.061C222.638 279.061 260.639 269.812 260.639 258.403C260.639 246.994 222.638 237.745 175.763 237.745C128.887 237.745 90.8867 246.994 90.8867 258.403C90.8867 269.812 128.887 279.061 175.763 279.061Z" fill="#E3D1B6"/>
<path d="M229.819 208.752C228.571 208.278 228.103 208.554 226.639 210.324C224.821 213.846 220.165 215.232 216.541 213.726C208.453 208.476 207.397 202.188 205.549 193.206C203.347 182.514 190.573 180.924 189.163 188.802C188.779 190.938 191.395 192.3 193.009 190.848C194.725 189.3 196.663 187.866 199.771 190.032C202.075 191.418 202.075 197.766 205.201 205.704C206.911 210.054 210.607 216 215.503 217.602C220.231 219.654 226.759 216.75 228.487 211.956C229.249 210.972 231.331 209.634 229.825 208.746L229.819 208.752Z" fill="#F5A20A"/>
<path d="M226.18 211.116C226.534 204.042 233.944 200.946 239.668 204.708L238.474 206.406C239.434 206.772 240.562 206.664 241.432 207.288C239.8 212.946 232.708 216.516 227.434 213.234C227.806 212.634 228.04 211.854 228.394 211.23C227.68 210.684 226.93 211.476 226.18 211.116Z" fill="#BB5627"/>
<path d="M135.265 170.899C132.715 170.245 130.021 167.989 129.043 163.993C129.739 161.479 132.181 160.453 133.411 158.119C137.665 146.647 152.497 130.819 157.297 132.967C166.087 136.891 171.865 147.607 168.139 154.159C167.185 156.313 147.751 169.435 142.117 171.403C138.991 173.323 138.007 171.601 135.265 170.899Z" fill="#F5A20A"/>
<path d="M194.466 135.571C193.698 135.811 193.224 136.645 192.618 137.149C183.792 144.433 170.184 141.835 161.946 134.935L159.648 132.775C159.858 132.127 159.876 131.197 159.996 130.507C160.182 129.451 160.344 127.909 160.482 126.091C160.602 124.495 160.71 122.695 160.8 120.829C160.926 118.171 161.022 115.387 161.094 112.927C161.166 110.401 161.208 108.205 161.226 106.819V106.789C161.268 106.801 161.322 106.813 161.394 106.825C161.394 106.819 161.406 106.825 161.412 106.825C164.076 107.203 186.414 107.503 192.126 107.005C192.822 106.945 193.272 106.873 193.41 106.789C193.416 106.849 193.416 106.909 193.422 106.981C193.518 108.787 193.644 114.157 193.782 119.539C193.866 122.431 193.95 125.323 194.034 127.669C194.07 128.563 194.124 129.901 194.19 131.233C194.286 133.171 194.4 135.085 194.466 135.571Z" fill="#F5A20A"/>
<path d="M194.192 131.233C182.276 132.997 169.724 130.825 160.484 126.091C160.604 124.495 160.712 122.695 160.802 120.829C160.928 118.171 161.024 115.387 161.096 112.927C161.168 110.401 161.21 108.205 161.228 106.819C161.282 106.819 161.336 106.819 161.396 106.825C161.396 106.819 161.408 106.825 161.414 106.825C170.462 107.041 182.864 107.143 192.128 107.005C192.566 106.999 192.998 106.993 193.424 106.981C193.52 108.787 193.646 114.157 193.784 119.539C193.868 122.431 193.952 125.323 194.036 127.669C194.072 128.563 194.126 129.901 194.192 131.233Z" fill="#D17100"/>
<path d="M151.529 192.331C151.553 193.591 151.685 194.845 151.703 196.087C151.721 197.563 151.679 199.051 151.703 200.527V200.695C151.703 200.923 151.703 201.151 151.703 201.379C151.715 202.057 151.691 202.747 151.703 203.431C151.943 214.747 152.645 226.033 153.071 237.319C153.137 239.017 152.447 240.481 152.555 242.617C152.591 243.379 152.765 245.455 153.023 246.079C153.203 246.505 154.865 247.525 155.285 247.657C156.371 247.993 160.109 248.431 161.351 248.509C162.761 248.599 164.207 248.455 165.623 248.509C167.747 248.851 169.949 248.119 172.097 247.993L172.361 248.689C172.373 248.479 172.295 247.951 172.379 247.855C172.427 247.795 173.555 247.519 173.843 247.357C174.701 246.871 174.749 246.421 174.899 245.509C175.043 244.621 175.415 240.229 175.169 239.641C174.863 238.915 174.701 239.185 174.749 238.015C174.767 237.559 174.785 237.103 174.815 236.647C175.145 230.281 175.895 223.519 176.459 217.183C176.561 216.037 176.687 214.891 176.807 213.745C176.999 211.957 177.191 210.169 177.275 208.381C177.293 208.099 177.305 207.817 177.311 207.535H180.041L185.819 239.605C185.939 240.049 185.375 240.175 185.333 240.583C185.249 241.393 185.873 245.497 186.095 246.481C186.527 248.395 187.709 248.503 189.437 248.863C193.775 249.751 201.677 249.463 205.997 248.353C206.927 248.113 207.911 247.681 208.691 247.117C208.535 245.233 209.153 241.909 208.403 240.217C208.253 239.875 207.905 239.833 207.869 239.689C207.791 239.383 207.725 237.535 207.695 237.001C207.311 229.315 207.425 221.587 207.023 213.931C206.987 213.289 205.889 187.255 205.823 185.851C197.699 188.125 189.575 189.085 181.145 189.433C172.115 189.811 160.181 189.193 151.517 186.529C151.541 188.461 151.487 190.405 151.517 192.337L151.529 192.331Z" fill="#40798B"/>
<path d="M204.35 196.752C204.35 196.752 198.434 195.144 196.43 188.916" stroke="#32616F" stroke-width="2.724" stroke-miterlimit="10" stroke-linecap="square"/>
<path d="M174.042 208.656L172.578 247.23C173.886 246.954 174.63 246.018 174.63 246.018L175.188 239.76L174.63 238.83L174.822 236.646L176.814 213.744L177.282 208.38C177.3 208.098 177.312 207.816 177.318 207.534H179.922C180.012 207.258 179.952 206.622 179.91 206.424C176.736 206.892 167.25 205.29 167.25 205.29C168.096 206.22 174.036 208.656 174.036 208.656H174.042Z" fill="#32616F"/>
<path d="M175.82 190.458C175.82 190.458 175.982 201.144 177.524 204.81" stroke="#32616F" stroke-width="2.724" stroke-miterlimit="10" stroke-linecap="round"/>
<path d="M153.641 239.694C153.641 239.694 162.707 243.018 174.107 239.694" stroke="#32616F" stroke-width="2.724" stroke-miterlimit="10" stroke-linecap="square"/>
<path d="M186.301 240.948C186.301 240.948 196.201 243.846 207.451 240.558" stroke="#32616F" stroke-width="2.724" stroke-miterlimit="10" stroke-linecap="square"/>
<path d="M160.115 189.396C160.115 189.396 158.891 197.526 152.957 197.124" stroke="#32616F" stroke-width="2.724" stroke-miterlimit="10" stroke-linecap="square"/>
<path d="M153.583 250.218C153.583 250.218 153.637 250.482 153.865 250.524C156.991 251.106 158.473 251.166 161.155 253.146C163.837 255.126 166.201 257.988 166.735 261.312C163.459 262.02 154.663 263.094 151.711 262.08C150.337 261.606 150.535 261.69 149.065 261.48C145.333 260.94 144.043 260.01 146.245 256.362C147.451 254.364 150.199 251.76 152.281 250.698C152.569 250.548 153.307 250.11 153.589 250.212L153.583 250.218Z" fill="#823F1C"/>
<path d="M154.95 249.534C155.076 249.552 155.64 249.888 155.976 249.96C160.482 250.986 165.264 251.376 169.848 250.512C170.724 250.35 171.492 249.882 172.368 249.87C172.446 251.652 172.698 253.476 172.71 255.336C172.716 256.644 173.004 258.66 171.942 259.608C171.036 260.418 167.994 261.042 166.734 261.312C166.2 257.988 163.788 255.096 161.154 253.146C158.52 251.196 156.996 251.106 153.864 250.524C153.636 250.482 153.6 250.224 153.582 250.218C153.81 249.84 154.524 249.474 154.95 249.534Z" fill="#F5A20A"/>
<path d="M155.291 247.656C156.377 247.992 160.109 248.43 161.357 248.508C162.773 248.598 164.213 248.454 165.629 248.508C167.747 248.85 169.955 248.118 172.103 247.992L172.367 248.688C172.349 249.078 172.349 249.492 172.367 249.882C171.491 249.894 170.723 250.356 169.847 250.524C165.263 251.388 160.475 250.998 155.975 249.972C155.639 249.894 155.081 249.564 154.949 249.546C155.261 248.952 155.345 248.334 155.291 247.668V247.656Z" fill="#D17100"/>
<path d="M149.078 261.39C150.188 258.378 152.366 255.828 154.952 253.998C154.214 255.258 153.638 256.602 153.272 258C152.954 259.278 152.714 260.634 152.852 261.924L149.078 261.39Z" fill="#643413"/>
<path d="M206.01 250.218C206.226 252.138 207.042 254.406 207.378 256.368C207.54 257.316 207.63 258.312 207.72 259.272C207.33 259.296 207.276 259.014 207.102 258.78C202.59 252.858 195.528 250.656 189.24 255.51L187.398 257.388C187.62 256.668 187.86 255.894 188.082 255.168C188.424 254.052 189.102 251.994 189.276 250.896C190.722 251.094 192.174 251.448 193.632 251.58C197.088 251.88 201.276 251.538 204.648 250.644C205.11 250.518 205.506 250.2 206.01 250.212V250.218Z" fill="#F5A20A"/>
<path d="M206.007 248.341C206.055 248.947 205.941 249.631 206.007 250.219C205.503 250.207 205.107 250.525 204.645 250.651C201.273 251.545 197.085 251.887 193.629 251.587C192.171 251.461 190.719 251.101 189.273 250.903C189.375 250.273 189.135 249.511 189.441 248.851C193.785 249.739 201.681 249.445 206.007 248.341Z" fill="#D17100"/>
<path d="M207.715 259.273C207.835 260.521 208.171 260.73 207.343 261.894C205.855 263.982 199.435 265.47 197.077 264.87C196.669 264.768 196.333 264.3 195.991 264.264C195.595 264.222 195.073 264.654 194.635 264.726C192.457 265.062 187.357 264.66 186.379 262.242C185.677 260.496 186.913 258.924 187.387 257.394L189.229 255.516C195.517 250.662 202.579 252.864 207.091 258.786C207.271 259.02 207.319 259.302 207.709 259.278L207.715 259.273Z" fill="#823F1C"/>
<path d="M194.094 264.372C194.604 261.558 195.408 258.768 196.776 256.278C196.674 258.96 197.154 261.624 197.898 264.156L194.094 264.372Z" fill="#643413"/>
<path d="M159.206 130.885C152.294 122.725 136.97 137.647 134.726 139.513C132.944 152.623 140.84 163.753 141.896 163.765C149.372 163.225 164.96 162.043 167.078 154.321C168.512 149.089 159.74 132.859 159.206 130.891V130.885Z" fill="#FCEAAC"/>
<path d="M148.777 163.249C150.001 157.849 153.001 149.863 156.319 141.421C153.583 149.761 151.249 157.639 150.433 163.813L148.783 163.243L148.777 163.249Z" fill="#F3DBB7"/>
<path d="M194.156 128.912C198.302 128.522 206.414 132.494 204.86 134.21C200.534 155.492 202.136 156.158 202.94 164.726C203.546 165.122 205.514 179.06 206.24 179.042C206.612 181.958 206.816 184.892 206.954 187.826C198.428 190.214 189.902 191.222 181.058 191.594C171.578 191.99 159.05 191.336 149.96 188.546C149.852 188.51 148.91 187.988 148.868 187.934C148.274 187.184 148.982 182.324 149.06 181.106C149.3 177.41 149.414 173.576 149.78 169.904C150.776 159.878 152.636 148.274 156.326 138.896C157.292 136.43 158.57 134.84 158.936 132.158C159.722 132.398 160.19 132.998 160.814 133.514C169.862 140.984 183.8 138.326 192.242 131.252L194.156 128.918V128.912Z" fill="#FCEAAC"/>
<path d="M204.344 164.119C205.412 181.693 218.606 178.081 222.722 178.081C226.838 178.081 223.124 168.313 221.876 163.759C220.622 159.199 217.112 155.461 212.996 155.461C208.88 155.461 204.056 159.391 204.344 164.113V164.119Z" fill="#F5A20A"/>
<path d="M221.634 163.07C215.232 162.14 209.364 164.222 203.514 166.436C197.334 149.966 214.2 144.524 219.642 155.588L221.634 163.07Z" fill="#D17100"/>
<path d="M196.745 129.391C216.515 124.681 220.205 150.187 221.333 159.817C206.993 159.253 207.845 164.989 202.145 165.031C201.665 164.731 200.375 160.291 200.129 159.457C198.059 152.419 195.395 145.345 195.809 143.707C197.579 136.627 195.851 129.601 196.745 129.391Z" fill="#FCEAAC"/>
<path d="M217.812 171.991L205.812 171.235C205.812 171.235 209.551 169.249 212.773 169.855C215.995 170.461 217.812 171.997 217.812 171.997V171.991Z" fill="#D17100"/>
<path d="M224.233 174.379C226.561 187.243 207.949 186.157 196.837 187.051C195.529 187.153 194.245 187.177 193.021 187.099C189.697 186.901 186.859 187.243 184.867 185.251C175.897 180.685 183.685 170.725 185.419 170.893C188.605 171.205 192.019 171.313 193.453 171.049C197.689 170.269 201.373 169.489 204.811 168.541C217.927 164.923 223.081 167.965 224.239 174.373L224.233 174.379Z" fill="#F5A20A"/>
<path d="M127.556 137.004L117.176 146.705C117.176 146.705 116.696 147.821 116.048 149.361C114.788 152.349 112.916 156.948 112.706 158.169C112.4 160.011 109.904 172.836 107.828 175.96C105.746 179.089 105.902 183.018 107.828 184.62C108.71 185.355 115.406 186.707 115.406 186.707C115.406 186.707 116.312 191.091 112.694 191.879C112.25 191.975 111.74 192.019 111.152 191.992C105.752 191.756 101.084 189.708 98.9058 187.984C96.7398 186.274 93.9198 179.487 97.3458 173.558C100.778 167.625 100.154 157.604 101.192 148.704C102.23 139.809 106.466 138.732 108.56 137.682C111.05 136.44 125.486 135 125.486 135L127.562 137L127.556 137.004Z" fill="#BB5627"/>
<path d="M107.833 175.961C105.751 179.089 105.907 183.018 107.833 184.62C108.715 185.355 115.411 186.707 115.411 186.707C115.411 186.707 116.317 191.091 112.699 191.879C107.971 191.389 103.987 189.669 102.019 188.195C99.8531 186.571 97.0331 180.144 100.459 174.517C103.885 168.894 103.261 159.394 104.305 150.958C105.343 142.526 109.159 140.833 111.463 140.242C117.283 138.763 116.035 145.541 116.035 145.541C116.035 145.541 116.047 147.182 116.053 149.361C114.793 152.35 112.921 156.948 112.711 158.169C112.405 160.011 109.909 172.836 107.833 175.961Z" fill="#823F1C"/>
<path d="M175.621 147.95C172.453 141.17 163.291 138.866 160.417 138.086L160.879 137.948C160.879 137.948 161.959 132.734 163.513 126.47C165.439 118.694 167.605 109.268 163.525 105.8C157.099 100.334 146.695 98.8695 143.125 99.2055C131.965 100.25 127.915 101.846 123.559 102.998C119.197 104.15 116.863 110.198 116.035 112.724C115.483 114.404 113.803 119.87 113.389 124.1C113.155 126.488 113.743 138.464 114.145 145.868C113.767 147.782 108.589 174.392 109.393 181.808C110.221 189.5 114.169 196.538 118.531 198.512C122.893 200.492 136.387 204.668 143.653 203.786C150.919 202.904 174.331 197.798 178.687 190.322C183.049 182.846 180.397 158.174 175.627 147.95H175.621Z" fill="#BB5627"/>
<path d="M173.958 149.923C171.438 151.141 168.582 152.377 165.516 153.571C160.026 155.707 153.84 157.723 147.564 159.343C141 160.861 136.98 160.159 132.828 156.637L126.006 150.859L124.464 149.551C123.444 148.735 122.646 147.673 122.118 146.467C121.662 145.429 121.41 144.283 121.404 143.095L121.278 122.521C121.242 117.067 124.98 112.411 130.062 111.559C139.842 108.949 149.082 106.987 157.452 106.105C158.046 106.039 158.646 105.985 159.234 105.931C163.41 105.139 166.812 109.861 165.882 114.247L160.872 137.935L169.23 141.529C169.83 141.787 170.4 142.129 170.916 142.537C176.058 146.593 176.538 148.969 173.952 149.917L173.958 149.923Z" fill="#995939"/>
<path d="M133.472 165.644C133.472 165.644 136.274 189.278 132.332 198.95L133.472 165.644Z" fill="#823F1C"/>
<path d="M165.511 153.577C160.021 155.713 153.835 157.729 147.559 159.349C140.995 160.867 136.975 160.165 132.823 156.643L126.001 150.865L124.459 149.557C123.439 148.741 122.641 147.679 122.113 146.473L152.497 139.531L159.421 137.947C162.445 140.707 164.251 146.473 165.511 153.577Z" fill="#823F1C"/>
<path d="M166.297 174.974L157.453 176.57C156.955 176.66 156.487 176.306 156.403 175.778L156.001 173.276C155.917 172.748 156.253 172.25 156.745 172.16L165.589 170.564C166.087 170.474 166.555 170.828 166.639 171.356L167.041 173.858C167.125 174.386 166.789 174.884 166.297 174.974Z" fill="#823F1C"/>
<path d="M165.007 182.954L161.161 183.65C160.585 183.752 160.033 183.344 159.937 182.732L158.995 176.882C158.899 176.27 159.283 175.688 159.865 175.586L163.711 174.89C164.287 174.788 164.839 175.196 164.935 175.808L165.877 181.658C165.973 182.27 165.589 182.852 165.007 182.954Z" fill="#823F1C"/>
<path d="M186.039 186.09C186.453 186.162 186.717 186.504 187.227 186.678C194.799 184.248 190.161 174.132 188.457 171.174L187.725 171.036L186.039 186.084V186.09Z" fill="#D17100"/>
<path d="M175.435 178.057C175.705 183.769 176.689 186.739 182.161 187.885C188.119 187.603 189.295 183.019 189.025 177.307C188.755 171.595 186.937 166.819 180.979 167.101C175.021 167.383 175.165 172.339 175.435 178.057Z" fill="#F5A20A"/>
<path d="M183.371 167.388C180.965 166.11 172.751 167.532 169.121 169.836C166.949 171.216 168.161 175.716 171.539 175.008C168.203 175.986 168.659 180.75 172.493 180.114C170.405 179.682 169.025 183.552 173.363 184.782C177.155 185.856 177.155 188.418 183.317 187.836C191.561 186.396 188.213 175.158 187.643 171.336C187.307 169.098 183.377 167.394 183.377 167.394L183.371 167.388Z" fill="#F5A20A"/>
<path d="M171.402 175.002C176.82 174.978 180.504 174.456 184.236 174.132C181.596 173.754 179.298 173.16 172.602 174.546L171.402 175.002Z" fill="#DC8D32"/>
<path d="M171.648 180.18C171.648 180.18 179.424 181.032 185.04 179.382C179.298 179.304 173.388 179.886 171.648 180.18Z" fill="#DC8D32"/>
<path d="M138.345 70.1701C138.345 70.1701 131.968 70.0124 128.563 65.0246C128.289 64.6211 125.389 59.8827 126.853 55.9235C127.128 55.1853 127.907 52.1265 131.487 51.269C134.837 50.4644 139.895 52.0068 143.97 61.2923C141.653 68.8189 138.346 70.1756 138.346 70.1756L138.345 70.1701Z" fill="#F5A20A"/>
<path d="M131.599 56.9936C131.599 56.9936 132.211 61.0614 135.591 64.3084C137.711 66.3412 140.208 66.1289 140.208 66.1289C138.547 62.1402 133.427 56.4709 131.599 56.9936Z" fill="#E78E24"/>
<path d="M131.211 56.8262C133.536 57.1104 135.168 57.9528 137.017 59.1992C139.16 60.4535 140.278 63.0608 139.526 65.4306C138.842 64.5032 138.26 63.649 137.648 63.0287C136.712 62.0665 135.331 61.6189 134.174 60.7929C132.826 59.8131 131.592 58.5398 131.211 56.8262Z" fill="#BB5627"/>
<path d="M137.669 71.3298C137.833 72.7574 137.452 75.0705 137.518 76.7787C137.526 77.0591 137.505 87.7973 138.381 90.1383C138.506 91.6658 138.661 93.1619 138.584 94.6943C137.122 108.917 146.209 116.325 158.775 120.007C164.396 121.652 168.181 122.6 174.248 121.486C180.094 120.413 189.42 115.569 194.611 112.429C201.623 108.188 207.034 101.971 207.911 93.5479C208.431 88.5542 206.98 81.1798 205.882 76.152C204.954 71.9102 203.503 67.837 202.237 63.699C198.701 57.432 195.317 53.2686 190.9 50.4762C188.452 49.4179 184.351 48.1493 181.697 48.2604C172.696 46.9227 158.264 48.4355 150.624 52.176C148.732 53.4538 146.807 54.7462 146.031 55.5833C145.21 56.2171 143.448 57.7114 142.657 58.7244C141.066 61.2407 137.619 70.8177 137.675 71.3348L137.669 71.3298Z" fill="#F5A20A"/>
<path d="M192.576 50.616C192.576 50.616 193.587 42.5044 199.046 39.5608C199.487 39.3222 202.295 37.6592 205.619 39.6469C206.25 40.0233 208.248 41.9792 208.861 44.5341C209.686 47.9771 207.28 56.2444 198.56 59.6174C191.121 56.4414 192.581 50.6154 192.581 50.6154L192.576 50.616Z" fill="#F5A20A"/>
<path d="M204.441 43.7275C204.441 43.7275 206.357 52.9696 201.519 54.8396C196.001 56.9741 198.142 55.3885 198.142 55.3885C201.65 52.5479 202.501 43.6213 204.441 43.7275Z" fill="#E78E24"/>
<path d="M197.552 56.0589C198.422 53.8 200.01 52.0883 200.186 49.7523C200.366 48.4957 200.122 47.1216 200.749 45.9462C201.426 44.5011 202.936 43.4783 204.442 43.7325C203.447 45.6111 203.315 46.5363 203.233 48.2267C203.19 52.168 200.881 54.441 197.552 56.0644L197.552 56.0589Z" fill="#BB5627"/>
<path d="M161.403 98.6805C160.699 99.4085 157.991 98.4851 157.142 97.9183C155.501 96.8294 156.547 95.6259 158.214 95.8516C158.818 95.9328 161.708 98.0684 161.408 98.6799L161.403 98.6805Z" fill="#823F1C"/>
<path d="M166.235 98.0032C165.822 97.401 167.426 94.484 168.698 93.1942C170.303 91.3794 173.048 94.1042 170.131 95.8464C169.502 96.2234 166.588 98.5108 166.241 98.0027L166.235 98.0032Z" fill="#823F1C"/>
<path d="M163.525 99.4184C162.764 101.182 164.14 104.307 164.14 104.307L163.525 99.4184Z" fill="#823F1C"/>
<path d="M188.778 86.7191C188.019 87.5599 187.089 88.2167 186 88.6038C185.366 88.8294 184.673 88.9715 183.922 89.0016C181.004 89.113 178.888 87.5803 177.551 85.2946C174.18 79.5214 175.879 68.9626 182.552 68.2111C186.852 67.7205 189.613 70.5336 190.792 74.231C192.143 78.4218 191.479 83.7516 188.773 86.7252L188.778 86.7191Z" fill="#FCF7DA"/>
<path d="M178.502 69.9336C178.326 70.2337 178.719 70.5346 178.962 70.289C185.055 66.2819 190.497 71.6467 191.111 77.9918C191.136 79.6875 192.059 79.5827 191.818 77.9159C192.301 70.9071 184.271 63.1212 178.507 69.9274L178.502 69.9336Z" fill="#5B3B21"/>
<mask id="mask0_6294_70287" style="mask-type:luminance" maskUnits="userSpaceOnUse" x="175" y="68" width="17" height="22">
<path d="M188.778 86.7191C188.019 87.5599 187.089 88.2167 186 88.6038C185.366 88.8294 184.673 88.9715 183.922 89.0016C181.004 89.113 178.888 87.5803 177.551 85.2946C174.18 79.5214 175.879 68.9626 182.552 68.2111C186.852 67.7205 189.613 70.5336 190.792 74.231C192.143 78.4218 191.479 83.7516 188.773 86.7252L188.778 86.7191Z" fill="white"/>
</mask>
<g mask="url(#mask0_6294_70287)">
<path d="M184.034 91.7113C187.025 91.3896 189.08 87.6939 188.624 83.4566C188.168 79.2194 185.374 76.0451 182.384 76.3668C179.393 76.6885 177.338 80.3842 177.794 84.6215C178.25 88.8587 181.044 92.033 184.034 91.7113Z" fill="#4F2B11"/>
<path d="M178.128 80.9244C180.237 80.3489 180.68 83.94 179.188 84.3479C176.664 85.0355 176.55 81.3585 178.128 80.9244Z" fill="#FCF7DA"/>
</g>
<path d="M154.886 92.0691C154.807 92.1732 154.722 92.2723 154.637 92.3659C153.427 93.7164 151.761 94.3849 149.652 93.9143C148.516 93.6596 147.538 93.0844 146.711 92.296C141.669 87.4618 142.426 74.3105 149.133 73.8253C152.7 73.571 155.04 76.0357 156.204 79.3298C157.694 83.5618 157.231 89.1399 154.892 92.0741L154.886 92.0691Z" fill="#FCF7DA"/>
<mask id="mask1_6294_70287" style="mask-type:luminance" maskUnits="userSpaceOnUse" x="143" y="73" width="15" height="22">
<path d="M154.886 92.0691C154.807 92.1732 154.722 92.2723 154.637 92.3659C153.427 93.7164 151.761 94.3849 149.652 93.9143C148.516 93.6596 147.538 93.0844 146.711 92.296C141.669 87.4618 142.426 74.3105 149.133 73.8253C152.7 73.571 155.04 76.0357 156.204 79.3298C157.694 83.5618 157.231 89.1399 154.892 92.0741L154.886 92.0691Z" fill="white"/>
</mask>
<g mask="url(#mask1_6294_70287)">
<path d="M151.843 96.9457C154.833 96.624 156.888 92.9283 156.433 88.691C155.977 84.4537 153.183 81.2795 150.192 81.6012C147.202 81.9228 145.147 85.6186 145.603 89.8558C146.058 94.0931 148.852 97.2673 151.843 96.9457Z" fill="#4F2B11"/>
<path d="M145.314 85.8834C147.191 85.614 147.63 89.3853 145.8 89.4135C144.115 89.4372 143.813 86.101 145.314 85.8834Z" fill="#FCF7DA"/>
</g>
<path d="M149.12 73.281C143.952 73.1227 142.523 80.1262 143.45 84.9756C143.619 86.0822 143.653 86.2361 143.776 84.9743C143.369 76.9083 147.991 71.406 154.881 76.795C153.273 74.3472 151.421 73.281 149.12 73.281Z" fill="#5B3B21"/>
<path d="M179.334 102.424C173.06 105.011 162.991 105.824 155.281 106.721C155.003 106.751 154.792 106.981 154.771 107.259C154.762 107.384 154.753 107.509 154.745 107.639C162.625 107.286 171.435 106.845 179.778 103.518C180.096 103.394 180.236 103.019 180.091 102.714C180.091 102.714 180.09 102.708 180.089 102.703C179.953 102.425 179.625 102.303 179.34 102.424L179.334 102.424Z" fill="#823F1C"/>
<path d="M151.347 60.8817C153.129 61.5055 153.835 63.5161 151.851 64.4718C148.995 65.8419 147.263 65.9494 145.048 68.6734C144.357 69.5182 142.957 72.7113 142.017 72.7506C140.079 72.8241 141.208 68.839 141.576 67.8714C142.857 64.5112 147.362 59.4993 151.342 60.8879L151.347 60.8817Z" fill="#823F1C"/>
<path d="M180.058 55.2284C183.57 55.1432 186.641 56.7138 188.916 59.3036C189.614 60.1001 191.947 63.4373 189.858 63.7745C189.106 63.8947 187 61.8323 186.212 61.3547C184.834 60.5187 182.732 59.7944 181.128 59.6294C179.695 59.4799 176.241 60.4137 176.13 58.3392C176.017 56.2986 178.314 55.2698 180.058 55.2284Z" fill="#823F1C"/>
<path d="M179.909 48.4067C179.989 48.055 179.893 47.7898 179.785 47.464C178.352 43.1864 169.642 38.3418 165.295 39.3886C163.217 39.8877 163.112 41.3162 163.615 43.1686C161.104 42.4657 158.265 41.8487 155.673 42.4818C153.558 42.9962 152.03 44.3752 152.922 46.7088C154.161 49.9612 159.772 51.3036 162.89 51.0694C166.762 50.7768 169.265 48.0161 173.141 47.7623C174.929 47.6488 178.157 48.0158 179.914 48.4061L179.909 48.4067Z" fill="#B45D27"/>
<path d="M232.802 134.324C234.485 134.324 235.85 132.959 235.85 131.276C235.85 129.592 234.485 128.228 232.802 128.228C231.119 128.228 229.754 129.592 229.754 131.276C229.754 132.959 231.119 134.324 232.802 134.324Z" fill="#F2B711"/>
<path d="M240.122 41.8636C241.806 41.8636 243.17 40.4989 243.17 38.8156C243.17 37.1322 241.806 35.7676 240.122 35.7676C238.439 35.7676 237.074 37.1322 237.074 38.8156C237.074 40.4989 238.439 41.8636 240.122 41.8636Z" fill="#F2B711"/>
<path d="M94.8488 76.6751C96.5321 76.6751 97.8968 75.3105 97.8968 73.6271C97.8968 71.9437 96.5321 70.5791 94.8488 70.5791C93.1654 70.5791 91.8008 71.9437 91.8008 73.6271C91.8008 75.3105 93.1654 76.6751 94.8488 76.6751Z" fill="#F2B711"/>
<path d="M277.162 74.3476C273.772 64.8016 262.3 60.1576 251.53 63.9736C240.76 67.7896 234.778 78.6316 238.168 88.1836C238.9 90.2536 240.016 92.0956 241.426 93.6676L236.89 100.076C236.35 100.838 237.064 101.852 237.964 101.6L248.812 98.6056C253.33 100.268 258.646 100.388 263.806 98.5576C274.576 94.7356 280.558 83.8996 277.168 74.3476H277.162Z" fill="#F2B711"/>
<path d="M250.692 86.1139L250.644 85.5139C250.506 84.2719 250.92 82.9159 252.066 81.5359C253.098 80.3179 253.674 79.4239 253.674 78.3859C253.674 77.2159 252.936 76.4299 251.49 76.4119C250.95 76.4119 250.374 76.5259 249.882 76.7299C249.474 76.8979 249.012 76.7059 248.856 76.2919C248.712 75.9139 248.88 75.4879 249.246 75.3139C249.996 74.9659 250.98 74.7559 251.91 74.7559C254.55 74.7559 255.75 76.3879 255.75 78.1339C255.75 79.6939 254.874 80.8219 253.776 82.1299C252.762 83.3239 252.396 84.3379 252.468 85.5079L252.492 86.1079H250.698L250.692 86.1139ZM250.188 89.3299C250.188 88.4779 250.764 87.8839 251.568 87.8839C252.372 87.8839 252.924 88.4839 252.924 89.3299C252.924 90.1339 252.396 90.7519 251.544 90.7519C250.74 90.7519 250.188 90.1339 250.188 89.3299Z" fill="#823F1C"/>
<path d="M260.872 82.3756L260.824 81.7756C260.686 80.5336 261.1 79.1776 262.246 77.7976C263.278 76.5796 263.854 75.6856 263.854 74.6476C263.854 73.4776 263.116 72.6916 261.67 72.6736C261.13 72.6736 260.554 72.7876 260.062 72.9916C259.654 73.1596 259.192 72.9676 259.036 72.5536C258.892 72.1756 259.06 71.7496 259.426 71.5756C260.176 71.2276 261.16 71.0176 262.09 71.0176C264.73 71.0176 265.93 72.6496 265.93 74.3956C265.93 75.9556 265.054 77.0836 263.956 78.3916C262.942 79.5856 262.576 80.5996 262.648 81.7696L262.672 82.3696H260.878L260.872 82.3756ZM260.368 85.5916C260.368 84.7396 260.944 84.1456 261.748 84.1456C262.552 84.1456 263.104 84.7456 263.104 85.5916C263.104 86.3956 262.576 87.0136 261.724 87.0136C260.92 87.0136 260.368 86.3956 260.368 85.5916Z" fill="#823F1C"/>
<path d="M160.148 145.382C159.878 148.658 157.43 151.436 154.346 151.844C150.86 152.3 147.476 149.648 147.212 145.52C146.924 140.972 150.488 137.426 154.586 137.966C158.138 138.434 160.43 141.848 160.142 145.382H160.148Z" fill="#F2B711"/>
<path d="M155.555 141.547L155.195 147.103C155.183 147.325 155.015 147.511 154.817 147.517L154.133 147.559C153.929 147.571 153.755 147.403 153.743 147.175L153.461 141.427C153.449 141.145 153.641 140.917 153.881 140.929L155.171 141.013C155.399 141.031 155.573 141.271 155.555 141.541V141.547ZM155.303 148.273L155.291 149.017C155.291 149.239 155.123 149.431 154.919 149.449L153.995 149.533C153.785 149.551 153.611 149.383 153.611 149.155V148.387C153.611 148.153 153.785 147.955 153.995 147.937L154.937 147.877C155.141 147.865 155.303 148.039 155.297 148.261L155.303 148.273Z" fill="#823F1C"/>
</g>
<defs>
<clipPath id="clip0_6294_70287">
<rect width="187.224" height="244.122" fill="white" transform="translate(90.8867 34.9395)"/>
</clipPath>
</defs>
</svg>
