<svg width="28" height="28" viewBox="0 0 28 28" fill="none" xmlns="http://www.w3.org/2000/svg">
<g clip-path="url(#clip0_10776_12869)">
<path fill-rule="evenodd" clip-rule="evenodd" d="M3.33203 0C2.77975 0 2.33203 0.447715 2.33203 1V27C2.33203 27.5523 2.77975 28 3.33203 28H24.6654C25.2176 28 25.6654 27.5523 25.6654 27V4.66667L20.9987 0H3.33203Z" fill="#E9F0FA"/>
<path fill-rule="evenodd" clip-rule="evenodd" d="M20.998 0V4.66667H25.6647L20.998 0Z" fill="#C2CDDE"/>
</g>
<rect x="1.16602" y="11.6665" width="25.6667" height="11.6667" rx="1" fill="#F14848"/>
<path d="M6.75746 20.5V14.6818H8.93928C9.38625 14.6818 9.76125 14.7652 10.0643 14.9318C10.3692 15.0985 10.5993 15.3277 10.7546 15.6193C10.9118 15.9091 10.9904 16.2386 10.9904 16.608C10.9904 16.9811 10.9118 17.3125 10.7546 17.6023C10.5974 17.892 10.3654 18.1203 10.0586 18.2869C9.75178 18.4517 9.37393 18.5341 8.92507 18.5341H7.47905V17.6676H8.78303C9.04439 17.6676 9.2584 17.6222 9.42507 17.5312C9.59174 17.4403 9.71484 17.3153 9.79439 17.1562C9.87583 16.9972 9.91655 16.8144 9.91655 16.608C9.91655 16.4015 9.87583 16.2197 9.79439 16.0625C9.71484 15.9053 9.59079 15.7831 9.42223 15.696C9.25556 15.607 9.0406 15.5625 8.77734 15.5625H7.81143V20.5H6.75746ZM13.8775 20.5H11.9059V14.6818H13.9173C14.4949 14.6818 14.9911 14.7983 15.4059 15.0312C15.8226 15.2623 16.1426 15.5947 16.3661 16.0284C16.5896 16.4621 16.7013 16.9811 16.7013 17.5852C16.7013 18.1913 16.5887 18.7121 16.3633 19.1477C16.1398 19.5833 15.8169 19.9176 15.3945 20.1506C14.9741 20.3835 14.4684 20.5 13.8775 20.5ZM12.9599 19.5881H13.8263C14.2317 19.5881 14.5697 19.5142 14.8406 19.3665C15.1114 19.2169 15.315 18.9943 15.4513 18.6989C15.5877 18.4015 15.6559 18.0303 15.6559 17.5852C15.6559 17.1402 15.5877 16.7708 15.4513 16.4773C15.315 16.1818 15.1133 15.9612 14.8462 15.8153C14.5811 15.6676 14.2515 15.5938 13.8576 15.5938H12.9599V19.5881ZM17.7028 20.5V14.6818H21.43V15.5653H18.7567V17.1449H21.1744V18.0284H18.7567V20.5H17.7028Z" fill="white"/>
<defs>
<clipPath id="clip0_10776_12869">
<rect width="23.3333" height="28" fill="white" transform="translate(2.33203)"/>
</clipPath>
</defs>
</svg>
