<svg width="1000" height="298" viewBox="0 0 1000 298" fill="none" xmlns="http://www.w3.org/2000/svg">
<path d="M275 42.43H254.34V51.78C254.34 59.63 247.97 66 240.12 66C236.18 66 232.63 64.41 230.05 61.82C227.46 59.26 225.87 55.72 225.87 51.78V42.43H106.03V51.78C106.03 59.63 99.66 66 91.81 66C87.87 66 84.29 64.41 81.74 61.82C79.15 59.26 77.56 55.72 77.56 51.78V42.43H56.93C43.31 42.43 32.28 53.46 32.28 67.08V248.02C32.28 261.64 43.31 272.67 56.93 272.67H227.34L299.62 198.62V67.09C299.63 53.47 288.59 42.43 275 42.43ZM287.75 198.24H231.56C224.92 198.24 219.53 203.62 219.53 210.27V260.81H56.93C49.86 260.81 44.15 255.1 44.15 248.03V92.67H287.74V198.24H287.75Z" fill="#ECAD01"/>
<path d="M70.13 118.56V172.2H127.38V118.56H70.13ZM116.25 164.56H106.87V149.38H90.73V164.56H81.29V126.2H90.73V141.14H106.88V126.2H116.26V164.56H116.25Z" fill="#ECAD01"/>
<path d="M136.25 118.56V172.2H193.5V118.56H136.25ZM179.78 164.56H149.92V126.2H179.63V134.35H159.37V141.57H177.98V149.24H159.37V156.43H179.78V164.56Z" fill="#ECAD01"/>
<path d="M70.13 181.13V234.74H127.38V181.13H70.13ZM110.51 224.69C107.5 226.85 103.75 227.97 99.24 227.97C94.79 227.97 91 226.95 87.91 224.9C84.78 222.86 82.98 220 82.5 216.33L92.21 214.44C93.14 218.23 95.64 220.12 99.79 220.12C101.53 220.12 102.92 219.76 103.91 219.04C104.93 218.32 105.44 217.36 105.44 216.15C105.44 215.25 105.17 214.53 104.66 213.99C104.15 213.45 103.22 213.06 101.89 212.79L93.86 211.08C87 209.52 83.58 205.82 83.58 199.99C83.58 196.29 84.96 193.35 87.76 191.18C90.53 188.99 94.19 187.9 98.73 187.9C102.94 187.9 106.46 188.89 109.25 190.85C112.08 192.83 113.85 195.54 114.57 199L105.31 200.89C104.98 199.18 104.17 197.85 102.9 196.92C101.64 195.99 100.22 195.51 98.6 195.51C97.1 195.51 95.83 195.9 94.9 196.62C93.94 197.37 93.46 198.3 93.46 199.42C93.46 201.1 94.48 202.16 96.56 202.61L104.5 204.38C111.53 205.94 115.05 209.67 115.05 215.56C115.05 219.46 113.55 222.53 110.51 224.69Z" fill="#ECAD01"/>
<path d="M164.9 199.41L169.8 212.01H160.03L164.9 199.41Z" fill="#ECAD01"/>
<path d="M136.25 181.13V234.74H193.5V181.13H136.25ZM175.63 227.1L172.95 220.12H156.8L154.12 227.1H144L160.03 188.77H169.71L185.71 227.1H175.63Z" fill="#ECAD01"/>
<path d="M202.3 118.56V172.2H259.55V118.56H202.3ZM242.68 162.16C239.67 164.32 235.92 165.41 231.41 165.41C226.96 165.41 223.17 164.39 220.08 162.34C216.95 160.33 215.15 157.47 214.67 153.8L224.38 151.91C225.31 155.7 227.81 157.56 231.93 157.56C233.7 157.56 235.09 157.2 236.08 156.48C237.1 155.76 237.61 154.8 237.61 153.62C237.61 152.72 237.34 152 236.83 151.46C236.32 150.92 235.39 150.53 234.06 150.26L226.03 148.55C219.17 146.99 215.75 143.29 215.75 137.43C215.75 133.73 217.13 130.82 219.93 128.62C222.7 126.46 226.36 125.37 230.9 125.37C235.11 125.37 238.63 126.36 241.42 128.32C244.25 130.27 246.02 133.01 246.74 136.47L237.48 138.36C237.15 136.65 236.34 135.32 235.07 134.39C233.81 133.46 232.39 132.98 230.77 132.98C229.27 132.98 228 133.34 227.07 134.09C226.11 134.84 225.63 135.77 225.63 136.86C225.63 138.54 226.65 139.63 228.73 140.08L236.67 141.85C243.71 143.41 247.22 147.14 247.22 153C247.22 156.93 245.72 159.96 242.68 162.16Z" fill="#ECAD01"/>
<path d="M106.03 24.64H77.56V42.44H106.03V24.64Z" fill="#ECAD01"/>
<path d="M254.34 24.64H225.87V42.44H254.34V24.64Z" fill="#ECAD01"/>
<path d="M462.15 218.16V158.51H389.65V218.16H363.24V75.91H389.65V134.91H462.15V75.91H488.57V218.16H462.15Z" fill="black"/>
<path d="M550.23 165.25C550.23 167.5 550.38 169.67 550.65 171.74H621.09V163.56C620.55 147.87 615.05 134.82 604.76 124.8C594.48 114.82 582.03 109.74 567.75 109.74C552.51 109.74 539.46 115.03 529.06 125.43C518.63 135.86 513.34 149.39 513.34 165.69C513.34 181.96 518.6 195.46 528.94 205.8C539.28 216.14 552.21 221.4 567.33 221.4C579.12 221.4 589.58 218.63 598.39 213.16C606.72 208.02 613.18 200.44 617.66 190.64L602.39 187.39L594.96 185.83C590.3 193.23 583.54 197.74 574.82 199.33C572.47 199.75 569.98 199.96 567.33 199.96C560.6 199.96 554.55 197.71 549.44 193.26C549.23 193.11 549.02 192.93 548.84 192.75C548.27 192.24 547.76 191.7 547.25 191.16C546.86 190.8 546.53 190.41 546.2 189.99C546.02 189.78 545.84 189.57 545.66 189.36C545.45 189.09 545.24 188.82 545.03 188.55C540.28 182.36 537.87 174.54 537.87 165.25C537.87 160.74 538.44 156.59 539.58 152.77C539.58 152.74 539.58 152.74 539.58 152.74C540.75 148.11 542.8 144.17 545.74 140.98L545.77 140.95C547.09 139.51 548.63 138.21 550.31 137.07C555.66 133.43 561.55 131.6 567.75 131.6C569.01 131.6 570.22 131.66 571.42 131.81C573.98 132.08 576.44 132.71 578.76 133.61L578.79 133.64C580.89 134.45 582.85 135.53 584.71 136.86C589.61 140.41 593.04 145.73 594.84 152.7L595.35 154.62H551.4C550.62 157.95 550.23 161.47 550.23 165.25Z" fill="black"/>
<path d="M683.81 221.41C671.28 221.41 660.44 218.82 651.61 213.7C643.27 208.87 638.46 201.85 636.95 192.29L662.82 187.04C664.81 196.64 672.74 201.5 686.42 201.5C691.91 201.5 696.36 200.39 699.64 198.2C703.12 195.88 704.88 192.82 704.88 189.11C704.88 183.54 700.46 179.75 691.74 177.84L669.6 173.28C660.12 171.33 652.75 167.75 647.72 162.64C642.76 157.62 640.25 151.34 640.25 143.98C640.25 133.81 644.01 125.76 651.73 119.35C659.44 112.96 669.94 109.73 682.96 109.73C695.16 109.73 705.48 112.63 713.64 118.34C721.27 123.69 726.16 130.66 728.19 139.08L703.95 143.89C703.04 139.73 700.79 136.28 697.22 133.63C693.27 130.69 688.18 129.2 682.09 129.2C676.51 129.2 672.37 130.39 669.78 132.74C667.14 135.13 665.8 138.03 665.8 141.37C665.8 146.8 669.49 150.37 676.77 151.98L702.59 157.62C711.48 159.57 718.32 163.17 722.92 168.31C727.48 173.42 729.79 179.6 729.79 186.7C729.79 197.99 725.78 206.38 717.52 212.35C709.21 218.37 697.87 221.41 683.81 221.41Z" fill="black"/>
<path d="M790.75 221.41C778.22 221.41 767.38 218.82 758.55 213.7C750.21 208.87 745.4 201.85 743.89 192.29L769.76 187.04C771.75 196.64 779.68 201.5 793.36 201.5C798.85 201.5 803.3 200.39 806.58 198.2C810.06 195.88 811.82 192.82 811.82 189.11C811.82 183.54 807.4 179.75 798.68 177.84L776.54 173.28C767.06 171.33 759.69 167.75 754.66 162.64C749.7 157.62 747.19 151.34 747.19 143.98C747.19 133.81 750.95 125.76 758.67 119.35C766.38 112.96 776.88 109.73 789.9 109.73C802.1 109.73 812.42 112.63 820.58 118.34C828.21 123.69 833.1 130.66 835.13 139.08L810.89 143.89C809.98 139.73 807.73 136.28 804.16 133.63C800.21 130.69 795.12 129.2 789.03 129.2C783.45 129.2 779.31 130.39 776.72 132.74C774.08 135.13 772.74 138.03 772.74 141.37C772.74 146.8 776.43 150.37 783.71 151.98L809.53 157.62C818.42 159.57 825.26 163.17 829.86 168.31C834.42 173.42 836.73 179.6 836.73 186.7C836.73 197.99 832.72 206.38 824.46 212.35C816.15 218.37 804.81 221.41 790.75 221.41Z" fill="black"/>
<path d="M952.33 113C946.74 113 942.2 117.54 942.2 123.13V123.43L939.67 121.33C930.44 113.63 918.71 109.75 904.85 109.75C891.17 109.75 879.02 115.1 868.74 125.65C858.46 136.23 853.26 149.7 853.26 165.67C853.26 181.67 858.43 195.1 868.65 205.6C878.84 216.09 891.02 221.41 904.85 221.41C918.59 221.41 930.32 217.59 939.67 210.05L942.2 208.01C942.2 213.63 946.74 218.17 952.33 218.17H967.72V113H952.33ZM932.39 190.12C925.9 196.37 918.32 199.56 909.84 199.56C900.61 199.56 892.91 196.43 886.93 190.3C880.95 184.17 877.94 175.9 877.94 165.68C877.94 155.49 880.95 147.19 886.93 140.97C892.91 134.78 900.61 131.62 909.84 131.62C918.32 131.62 925.9 134.84 932.39 141.18C938.88 147.52 942.19 155.76 942.19 165.68C942.2 175.63 938.89 183.83 932.39 190.12Z" fill="black"/>
</svg>
