<svg width="44" height="24" viewBox="0 0 44 24" fill="none" xmlns="http://www.w3.org/2000/svg">
<path d="M41.0949 13.202C44.0993 12.7054 44.4965 17.6465 41.7653 18.0934C38.2147 18.6645 38.5374 13.6241 41.0949 13.202Z" fill="#48484B"/>
<path d="M35.5062 20.6333C35.0096 19.5408 31.0121 14.5749 29.0505 13.7804C29.0754 13.7804 28.4546 15.2702 28.3801 15.4191C28.1567 15.9406 27.9084 16.4372 27.6353 16.9337C27.1387 17.8524 26.5924 18.7463 25.9469 19.5905C25.3013 20.4347 24.7302 21.0554 24.0102 21.6762C22.6942 22.8183 21.2541 23.7122 19.516 23.9357C17.8028 24.1591 15.7916 23.8115 14.4011 22.719C13.83 22.2721 13.3583 21.6762 12.9858 21.0803C12.6879 20.5837 12.4396 20.0623 12.2658 19.516C12.092 18.9946 11.9182 18.1752 11.943 17.1075C11.943 15.6426 11.943 14.1528 11.9678 12.6879C11.9927 11.2229 11.3471 10.2049 10.2546 9.53454C9.16209 8.86414 8.93863 8.96346 8.19374 8.98829C6.33153 9.06278 4.81693 10.6022 4.71761 12.4893V23.5881H0V4.56863H4.71761V6.57983C5.23903 6.10806 6.03357 5.53699 7.12607 5.11488C7.97027 4.7921 8.78965 4.64312 9.53454 4.64312C14.2273 4.64312 15.4191 8.11926 15.7171 8.81448C16.4868 10.5526 16.5365 12.4148 16.3875 14.277C16.2385 16.2633 15.8661 18.8456 18.2249 19.6898C20.0871 20.3602 21.9245 18.8456 23.017 17.5048C24.5316 15.6178 25.7234 13.1845 26.0462 10.7512C26.0462 10.7512 22.719 7.27505 18.4483 7.37437L18.2994 4.44448C21.403 4.59346 24.3329 5.41284 26.8159 7.07642C27.4366 5.61147 27.2876 0 27.1138 0C27.1883 0 30.7141 0 30.7141 0C30.7141 0.0993181 30.739 0.223467 30.7638 0.322785C30.8631 1.16699 30.9128 2.08568 30.9128 2.97954C30.9376 5.16454 30.7638 7.3992 30.292 9.55937C33.5944 11.9678 36.8222 15.3943 37.5671 16.7599C37.5671 17.2069 36.2263 19.665 35.4566 20.6085L35.5062 20.6333Z" fill="#48484B"/>
</svg>
