<svg xmlns="http://www.w3.org/2000/svg" width="5" height="4" viewBox="0 0 5 4" fill="none">
  <path d="M3.13694 3.38139H1.85704C1.2926 3.38139 1.12109 3.20958 1.12109 2.64414V1.36195C1.12109 0.796508 1.2926 0.624695 1.85704 0.624695H2.04902C2.27301 0.624695 2.3434 0.697779 2.43299 0.817023L2.62498 1.07346C2.66722 1.12988 2.67362 1.13757 2.75297 1.13757H3.13694C3.70138 1.13757 3.87288 1.30938 3.87288 1.87482V2.64414C3.87288 3.20958 3.70138 3.38139 3.13694 3.38139ZM1.85704 0.817023C1.39883 0.817023 1.31308 0.904211 1.31308 1.36195V2.64414C1.31308 3.10188 1.39883 3.18906 1.85704 3.18906H3.13694C3.59515 3.18906 3.6809 3.10188 3.6809 2.64414V1.87482C3.6809 1.41708 3.59515 1.3299 3.13694 1.3299H2.75297C2.58914 1.3299 2.53539 1.27348 2.47139 1.18886L2.27941 0.932419C2.21285 0.843948 2.19237 0.817023 2.04902 0.817023H1.85704Z" fill="#121212"/>
  <path d="M3.52055 1.37862C3.46807 1.37862 3.42456 1.33503 3.42456 1.28246V1.10551C3.42456 0.902929 3.3388 0.817023 3.13658 0.817023H1.98466C1.93219 0.817023 1.88867 0.773428 1.88867 0.720859C1.88867 0.668289 1.93219 0.624695 1.98466 0.624695H3.13658C3.44631 0.624695 3.61654 0.795225 3.61654 1.10551V1.28246C3.61654 1.33503 3.57302 1.37862 3.52055 1.37862Z" fill="#121212"/>
</svg>